<svg xmlns="http://www.w3.org/2000/svg" xmlns:xlink="http://www.w3.org/1999/xlink"
     x="0" y="0" width="100%" height="100%"
     viewBox="0 0 70 70">

    <defs>
        <pattern id="grid-1" width="1" height="1" patternUnits="userSpaceOnUse">
        <path d="M 1 0 L 0 0 0 1" fill="none" stroke="gray" stroke-width="0.1"/>
        </pattern>
        <pattern id="grid-5" width="5" height="5" patternUnits="userSpaceOnUse">
        <rect width="5" height="5" fill="url(#grid-1)"/>
        <path d="M 5 0 L 0 0 0 5" fill="none" stroke="gray" stroke-width="0.2"/>
        </pattern>
        <pattern id="grid-10" width="10" height="10" patternUnits="userSpaceOnUse">
        <rect width="10" height="10" fill="url(#grid-5)"/>
        <path d="M 10 0 L 0 0 0 10" fill="none" stroke="gray" stroke-width="0.5"/>
        </pattern> 

        <!-- path commands: https://developer.mozilla.org/en-US/docs/Web/SVG/Attribute/d#Path_commands -->
        <!-- 
            x-offset: 54.7144
            y-offset: 56.329933 
            0-0 -> upper right corner
        -->
        <path id="curve-shape-complex" d="
            m 0,0 
            v -13 
            h -7 
            v 13 

            c -0.0019,0.07 -0.0053,0.14 -0.01,0.21 
            c -0.016,0.16 -0.04,0.32 -0.071,0.47 
            c -0.032,0.16 -0.071,0.31 -0.12,0.46 
            c -0.047,0.15 -0.1,0.3 -0.16,0.45 
            c -0.062,0.15 -0.13,0.29 -0.21,0.43 
            c -0.076,0.14 -0.16,0.28 -0.25,0.41 
            c -0.09,0.13 -0.19,0.26 -0.29,0.38 
            c -0.1,0.12 -0.21,0.24 -0.32,0.35 
            c -0.11,0.11 -0.230001,0.22 -0.360001,0.31 
            c -0.12,0.099 -0.25,0.19 -0.39,0.28 
            c -0.13,0.086 -0.27,0.16 -0.409999,0.24 
            c -0.140001,0.072 -0.29,0.14 -0.430001,0.19 
            c -0.149999,0.058 -0.299999,0.11 -0.449999,0.15 
            c -0.15,0.042 -0.31,0.077 -0.46,0.1 
            c -0.16,0.027 -0.31,0.046 -0.47,0.057 
            c -0.11,0.008 -0.22,0.012 -0.34,0.012 
            c -0.16,0 -0.32,-0.008 -0.48,-0.024 
            c -0.16,-0.016 -0.32,-0.04 -0.47,-0.071 
            c -0.16,-0.032 -0.31,-0.071 -0.46,-0.119999 
            c -0.15,-0.047 -0.3,-0.100001 -0.45,-0.160001 
            c -0.11,-0.047 -0.21,-0.098 -0.32,-0.15 
            h -8.7 
            c 1.7,4.500002 6,7.400002 11,7.400002 
            c 6.48043,0.01859 11.53289,-5.363289 11.5247,-11.374002 
            z"
        />          

        <path style="fill:#0ff" id="curve-shape" d="
            m 0,0             
            h -7 
            v 13 

            c -0.0019,0.07 -0.0053,0.14 -0.01,0.21 
            c -0.016,0.16 -0.04,0.32 -0.071,0.47 
            c -0.032,0.16 -0.071,0.31 -0.12,0.46 
            c -0.047,0.15 -0.1,0.3 -0.16,0.45 
            c -0.062,0.15 -0.13,0.29 -0.21,0.43 
            c -0.076,0.14 -0.16,0.28 -0.25,0.41 
            c -0.09,0.13 -0.19,0.26 -0.29,0.38 
            c -0.1,0.12 -0.21,0.24 -0.32,0.35 
            c -0.11,0.11 -0.230001,0.22 -0.360001,0.31 
            c -0.12,0.099 -0.25,0.19 -0.39,0.28 
            c -0.13,0.086 -0.27,0.16 -0.409999,0.24 
            c -0.140001,0.072 -0.29,0.14 -0.430001,0.19 
            c -0.149999,0.058 -0.299999,0.11 -0.449999,0.15 
            c -0.15,0.042 -0.31,0.077 -0.46,0.1 
            c -0.16,0.027 -0.31,0.046 -0.47,0.057 
            c -0.11,0.008 -0.22,0.012 -0.34,0.012 
            c -0.16,0 -0.32,-0.008 -0.48,-0.024 
            c -0.16,-0.016 -0.32,-0.04 -0.47,-0.071 
            c -0.16,-0.032 -0.31,-0.071 -0.46,-0.119999 
            c -0.15,-0.047 -0.3,-0.100001 -0.45,-0.160001 
            c -0.11,-0.047 -0.21,-0.098 -0.32,-0.15 
            h -8           
            C -20 27 0 27 0 13
            z"
        />  
        <!-- 
            c 1.72,4.500002 6,7.400002 11,7.400002 
            c 6.48043,0.01859 11.53289,-5.363289 11.5247,-11.374002 

            A 12 11 0 0 0 0 13
        -->   
    </defs>

    <rect id="grid" width="100%" height="100%" fill="url(#grid-10)"/>

    <g id="letter" style="fill:#f0f">
        <path id="i-shape"
            d="m25 18v6.6h7.1v26h-7.2v6.6h21v-6.6h-7.1v-26h7.1v-6.6z" />
        <path id="curve-right"
            d="m 53.43237,41.008825 l -13,0.0093 v -6.9 h 13 v -0.013 c 0.07,-0.0019 0.14,-0.0053 0.21,-0.01 c 0.16,-0.016 0.32,-0.04 0.47,-0.071 c 0.16,-0.032 0.31,-0.071 0.46,-0.120001 c 0.15,-0.047 0.3,-0.1 0.45,-0.16 c 0.150001,-0.062 0.29,-0.13 0.43,-0.21 c 0.140001,-0.076 0.280001,-0.159999 0.410001,-0.249999 c 0.13,-0.09 0.26,-0.190001 0.38,-0.29 c 0.119999,-0.100001 0.24,-0.21 0.35,-0.32 c 0.11,-0.11 0.22,-0.230001 0.309999,-0.360001 c 0.099,-0.12 0.19,-0.25 0.280001,-0.39 c 0.086,-0.13 0.159999,-0.27 0.239999,-0.409999 c 0.072,-0.140001 0.14,-0.29 0.190001,-0.430001 c 0.058,-0.149999 0.11,-0.299999 0.15,-0.449999 c 0.042,-0.15 0.077,-0.31 0.1,-0.46 c 0.027,-0.16 0.046,-0.31 0.057,-0.47 c 0.008,-0.11 0.012,-0.22 0.012,-0.34 c 0,-0.16 -0.008,-0.32 -0.024,-0.48 c -0.016,-0.16 -0.04,-0.32 -0.071,-0.47 c -0.032,-0.16 -0.071,-0.31 -0.12,-0.46 c -0.047,-0.15 -0.1,-0.3 -0.16,-0.45 c -0.047,-0.11 -0.098,-0.21 -0.15,-0.32 v -8.7 c 4.5,1.7 7.399999,6 7.399999,11 c 0.01859,6.48043 -5.363286,11.53289 -11.374,11.5247 z" />
    </g>

    <g id="bg-highlight" style="fill:#f00">
        <path id="curve-upper"
            d="m15,19 l -0.0093,13 h 6.9 V 19 h 0.013 c 0.0019,-0.07 0.0053,-0.14 0.01,-0.21 c 0.016,-0.16 0.04,-0.32 0.071,-0.47 c 0.032,-0.16 0.071,-0.31 0.12,-0.46 c 0.047,-0.15 0.1,-0.3 0.16,-0.45 c 0.062,-0.15 0.13,-0.29 0.21,-0.43 c 0.076,-0.14 0.16,-0.28 0.25,-0.41 c 0.09,-0.13 0.19,-0.26 0.29,-0.38 c 0.1,-0.12 0.21,-0.24 0.32,-0.35 c 0.11,-0.11 0.23,-0.22 0.36,-0.31 c 0.12,-0.099 0.25,-0.19 0.39,-0.28 c 0.13,-0.086 0.27,-0.16 0.41,-0.24 c 0.14,-0.072 0.29,-0.14 0.43,-0.19 c 0.15,-0.058 0.3,-0.11 0.45,-0.15 c 0.15,-0.042 0.31,-0.077 0.46,-0.1 c 0.16,-0.027 0.31,-0.046 0.47,-0.057 c 0.11,-0.008 0.22,-0.012 0.34,-0.012 c 0.16,0 0.32,0.008 0.48,0.024 c 0.16,0.016 0.32,0.04 0.47,0.071 c 0.16,0.032 0.31,0.071 0.46,0.12 c 0.15,0.047 0.3,0.1 0.45,0.16 c 0.11,0.047 0.21,0.098 0.32,0.15 h 8.7 c -1.7,-4.5 -6,-7.4 -11,-7.4 C 20.04427,7.6074116 14.99181,12.989287 15,19 Z" />
        <path id="rect-upper-right"
            d="m48 31h6.6v-21h-6.6z" />
        <path id="rect-lower-right"
            d="m22 45h-6.6v21h6.6z" />
        <use x="54" y="56" xlink:href="#curve-shape-complex"/>
        <use x="54" y="43" xlink:href="#curve-shape"/>        
    </g>
    <g id="bg-dim" style="fill:#030">
        <path id="square-upper-left"
            d="m 5.9416666,18 v 6.6 H 12.541666 V 18 Z" />
        <path id="square-lower-right"
            d="m 63.214237,57.134799 v -6.6 h -6.6 v 6.6 Z" />
        <path id="curve-left"
            d="m 17.316924,34.092751 l 13,-0.0093 v 6.9 h -13 v 0.013 c -0.07,0.0019 -0.14,0.0053 -0.21,0.01 c -0.16,0.016 -0.32,0.04 -0.47,0.071 c -0.16,0.032 -0.31,0.071 -0.46,0.120001 c -0.15,0.047 -0.3,0.1 -0.45,0.16 c -0.150001,0.062 -0.29,0.13 -0.43,0.21 c -0.140001,0.076 -0.280001,0.159999 -0.410001,0.25 c -0.13,0.09 -0.26,0.19 -0.38,0.29 c -0.119999,0.1 -0.24,0.209999 -0.35,0.319999 c -0.11,0.11 -0.22,0.230001 -0.309999,0.360001 c -0.099,0.12 -0.19,0.25 -0.280001,0.39 c -0.086,0.13 -0.159999,0.27 -0.239999,0.409999 c -0.072,0.140001 -0.14,0.29 -0.190001,0.430001 c -0.058,0.149999 -0.11,0.299999 -0.15,0.449999 c -0.042,0.15 -0.077,0.31 -0.1,0.46 c -0.027,0.16 -0.046,0.31 -0.057,0.47 c -0.008,0.11 -0.012,0.22 -0.012,0.34 c 0,0.16 0.008,0.32 0.024,0.48 c 0.016,0.16 0.04,0.32 0.071,0.47 c 0.032,0.16 0.071,0.31 0.12,0.46 c 0.047,0.15 0.1,0.3 0.16,0.45 c 0.047,0.11 0.098,0.21 0.15,0.32 v 8.7 c -4.5000009,-1.7 -7.4000009,-6 -7.4000009,-11 c -0.01859,-6.48043 5.3632879,-11.53289 11.3740019,-11.5247 z" />
    </g>
</svg>
