<?xml version="1.0" encoding="UTF-8" standalone="no"?>
<svg
     xmlns:dc="http://purl.org/dc/elements/1.1/"
     xmlns:cc="http://creativecommons.org/ns#"
     xmlns:rdf="http://www.w3.org/1999/02/22-rdf-syntax-ns#"
     xmlns:svg="http://www.w3.org/2000/svg"
     xmlns="http://www.w3.org/2000/svg"
     xmlns:sodipodi="http://sodipodi.sourceforge.net/DTD/sodipodi-0.dtd"
     xmlns:inkscape="http://www.inkscape.org/namespaces/inkscape"
     width="210mm"
     height="297mm"
     version="1.1"
     viewBox="0 0 210 297"
     id="svg5094"
     sodipodi:docname="logo.svg"
     inkscape:version="0.92.4 (5da689c313, 2019-01-14)"><metadata
     id="metadata5100">
    <rdf:RDF>
        <cc:Work
             rdf:about="">
            <dc:format>image/svg+xml</dc:format>
            <dc:type
                 rdf:resource="http://purl.org/dc/dcmitype/StillImage" />
        </cc:Work>
    </rdf:RDF>
</metadata>
<defs
     id="defs5098" />
<sodipodi:namedview
     pagecolor="#ffffff"
     bordercolor="#666666"
     borderopacity="1"
     objecttolerance="10"
     gridtolerance="10"
     guidetolerance="10"
     inkscape:pageopacity="0"
     inkscape:pageshadow="2"
     inkscape:window-width="3840"
     inkscape:window-height="2066"
     id="namedview5096"
     showgrid="false"
     inkscape:zoom="6.7277216"
     inkscape:cx="121.00025"
     inkscape:cy="971.5089"
     inkscape:window-x="-11"
     inkscape:window-y="-11"
     inkscape:window-maximized="1"
     inkscape:current-layer="svg5094" />
<!--<g transform="rotate(45 -110 158)"> -->
<path
     d="m48 56h0.013v-0.26a4.8 4.8 0 0 1-0.013 0.26z"
     id="path5082" />
<!-- </g> -->
&gt;
<g
     id="g5150">
    <path
         style="fill:#00ff00"
         inkscape:connector-curvature="0"
         id="path5076"
         d="m 5.9416666,18 v 6.6 H 12.541666 V 18 Z" />
    <path
         style="fill:#00ff00"
         inkscape:connector-curvature="0"
         id="path5086"
         d="m 63.214237,57.134799 v -6.6 h -6.6 v 6.6 z" />
    <path
         sodipodi:nodetypes="ccccccccccssscccccccssccccccc"
         style="fill:#00ff00;stroke-width:0.99999994"
         inkscape:connector-curvature="0"
         id="path5074-3"
         d="m 17.316924,34.092751 l 13,-0.0093 v 6.9 h -13 v 0.013 c -0.07,0.0019 -0.14,0.0053 -0.21,0.01 c -0.16,0.016 -0.32,0.04 -0.47,0.071 c -0.16,0.032 -0.31,0.071 -0.46,0.120001 c -0.15,0.047 -0.3,0.1 -0.45,0.16 c -0.150001,0.062 -0.29,0.13 -0.43,0.21 c -0.140001,0.076 -0.280001,0.159999 -0.410001,0.25 c -0.13,0.09 -0.26,0.19 -0.38,0.29 c -0.119999,0.1 -0.24,0.209999 -0.35,0.319999 c -0.11,0.11 -0.22,0.230001 -0.309999,0.360001 c -0.099,0.12 -0.19,0.25 -0.280001,0.39 c -0.086,0.13 -0.159999,0.27 -0.239999,0.409999 c -0.072,0.140001 -0.14,0.29 -0.190001,0.430001 c -0.058,0.149999 -0.11,0.299999 -0.15,0.449999 c -0.042,0.15 -0.077,0.31 -0.1,0.46 c -0.027,0.16 -0.046,0.31 -0.057,0.47 c -0.008,0.11 -0.012,0.22 -0.012,0.34 c 0,0.16 0.008,0.32 0.024,0.48 c 0.016,0.16 0.04,0.32 0.071,0.47 c 0.032,0.16 0.071,0.31 0.12,0.46 c 0.047,0.15 0.1,0.3 0.16,0.45 c 0.047,0.11 0.098,0.21 0.15,0.32 v 8.7 c -4.5000009,-1.7 -7.4000009,-6 -7.4000009,-11 c -0.01859,-6.48043 5.3632879,-11.53289 11.3740019,-11.5247 z" />
</g>
<g
     id="g5160">
    <path
         style="fill:#ff00ff;fill-opacity:1"
         id="path5092"
         fill="#0a0"
         d="m25 18v6.6h7.1v26h-7.2v6.6h21v-6.6h-7.1v-26h7.1v-6.6z" />
    <path
         sodipodi:nodetypes="ccccccccccssscccccccssccccccc"
         style="fill:#ff00ff;stroke-width:0.99999988"
         inkscape:connector-curvature="0"
         id="path5074-3-0"
         d="m 53.43237,41.008825 l -13,0.0093 v -6.9 h 13 v -0.013 c 0.07,-0.0019 0.14,-0.0053 0.21,-0.01 c 0.16,-0.016 0.32,-0.04 0.47,-0.071 c 0.16,-0.032 0.31,-0.071 0.46,-0.120001 c 0.15,-0.047 0.3,-0.1 0.45,-0.16 c 0.150001,-0.062 0.29,-0.13 0.43,-0.21 c 0.140001,-0.076 0.280001,-0.159999 0.410001,-0.249999 c 0.13,-0.09 0.26,-0.190001 0.38,-0.29 c 0.119999,-0.100001 0.24,-0.21 0.35,-0.32 c 0.11,-0.11 0.22,-0.230001 0.309999,-0.360001 c 0.099,-0.12 0.19,-0.25 0.280001,-0.39 c 0.086,-0.13 0.159999,-0.27 0.239999,-0.409999 c 0.072,-0.140001 0.14,-0.29 0.190001,-0.430001 c 0.058,-0.149999 0.11,-0.299999 0.15,-0.449999 c 0.042,-0.15 0.077,-0.31 0.1,-0.46 c 0.027,-0.16 0.046,-0.31 0.057,-0.47 c 0.008,-0.11 0.012,-0.22 0.012,-0.34 c 0,-0.16 -0.008,-0.32 -0.024,-0.48 c -0.016,-0.16 -0.04,-0.32 -0.071,-0.47 c -0.032,-0.16 -0.071,-0.31 -0.12,-0.46 c -0.047,-0.15 -0.1,-0.3 -0.16,-0.45 c -0.047,-0.11 -0.098,-0.21 -0.15,-0.32 v -8.7 c 4.5,1.7 7.399999,6 7.399999,11 c 0.01859,6.48043 -5.363286,11.53289 -11.374,11.5247 z" />
</g>
<g
     id="g5156">
    <path
         sodipodi:nodetypes="ccccccccccssscccccccssccccccc"
         style="fill:#ff0000"
         inkscape:connector-curvature="0"
         id="path5074"
         d="m 15,19 l -0.0093,13 h 6.9 V 19 h 0.013 c 0.0019,-0.07 0.0053,-0.14 0.01,-0.21 c 0.016,-0.16 0.04,-0.32 0.071,-0.47 c 0.032,-0.16 0.071,-0.31 0.12,-0.46 c 0.047,-0.15 0.1,-0.3 0.16,-0.45 c 0.062,-0.15 0.13,-0.29 0.21,-0.43 c 0.076,-0.14 0.16,-0.28 0.25,-0.41 c 0.09,-0.13 0.19,-0.26 0.29,-0.38 c 0.1,-0.12 0.21,-0.24 0.32,-0.35 c 0.11,-0.11 0.23,-0.22 0.36,-0.31 c 0.12,-0.099 0.25,-0.19 0.39,-0.28 c 0.13,-0.086 0.27,-0.16 0.41,-0.24 c 0.14,-0.072 0.29,-0.14 0.43,-0.19 c 0.15,-0.058 0.3,-0.11 0.45,-0.15 c 0.15,-0.042 0.31,-0.077 0.46,-0.1 c 0.16,-0.027 0.31,-0.046 0.47,-0.057 c 0.11,-0.008 0.22,-0.012 0.34,-0.012 c 0.16,0 0.32,0.008 0.48,0.024 c 0.16,0.016 0.32,0.04 0.47,0.071 c 0.16,0.032 0.31,0.071 0.46,0.12 c 0.15,0.047 0.3,0.1 0.45,0.16 c 0.11,0.047 0.21,0.098 0.32,0.15 h 8.7 c -1.7,-4.5 -6,-7.4 -11,-7.4 C 20.04427,7.6074116 14.99181,12.989287 15,19 Z" />
    <path
         style="fill:#ff0000"
         id="path5078"
         fill="#6f917c"
         d="m48 31h6.6v-21h-6.6z" />
    <path
         style="fill:#ff0000"
         id="path5088"
         fill="#6f917c"
         d="m22 45h-6.6v21h6.6z" />
    <path
         sodipodi:nodetypes="ccccccccccssscccccccssccccccc"
         style="fill:#ff0000;stroke-width:0.99999994"
         inkscape:connector-curvature="0"
         id="path5074-4"
         d="m 54.7144,56.329933 l 0.0093,-13 h -6.9 v 13 h -0.013 c -0.0019,0.07 -0.0053,0.14 -0.01,0.21 c -0.016,0.16 -0.04,0.32 -0.071,0.47 c -0.032,0.16 -0.071,0.31 -0.12,0.46 c -0.047,0.15 -0.1,0.3 -0.16,0.45 c -0.062,0.15 -0.13,0.29 -0.21,0.43 c -0.076,0.14 -0.16,0.28 -0.25,0.41 c -0.09,0.13 -0.19,0.26 -0.29,0.38 c -0.1,0.12 -0.21,0.24 -0.32,0.35 c -0.11,0.11 -0.230001,0.22 -0.360001,0.31 c -0.12,0.099 -0.25,0.19 -0.39,0.28 c -0.13,0.086 -0.27,0.16 -0.409999,0.24 c -0.140001,0.072 -0.29,0.14 -0.430001,0.19 c -0.149999,0.058 -0.299999,0.11 -0.449999,0.15 c -0.15,0.042 -0.31,0.077 -0.46,0.1 c -0.16,0.027 -0.31,0.046 -0.47,0.057 c -0.11,0.008 -0.22,0.012 -0.34,0.012 c -0.16,0 -0.32,-0.008 -0.48,-0.024 c -0.16,-0.016 -0.32,-0.04 -0.47,-0.071 c -0.16,-0.032 -0.31,-0.071 -0.46,-0.119999 c -0.15,-0.047 -0.3,-0.100001 -0.45,-0.160001 c -0.11,-0.047 -0.21,-0.098 -0.32,-0.15 h -8.7 c 1.7,4.500002 6,7.400002 11,7.400002 c 6.48043,0.01859 11.53289,-5.363289 11.5247,-11.374002 z" />
</g>
</svg>
