<svg xmlns="http://www.w3.org/2000/svg" xmlns:xlink="http://www.w3.org/1999/xlink"
     x="0" y="0" width="100%" height="100%"
     viewBox="0 0 29 29">

    <defs>
        <mask id="gutter">
            <rect x="0" y="-12" width="10" height="12" fill="white" />
            <rect x="5" y="-7" width="5" height="1" fill="black" />
        </mask>
        <path mask="url(#gutter)" id="curve-shape" d="
            M 0 0
            V -6 
            A 5 5 0 0 1 10 -6
            H 7
            A 2 2 0 0 0 3 -6
            V 0
            Z"/>     
    </defs>

    <g transform="rotate(45 13 15)">
     <g id="letter" style="fill:#e20074">
          <use id="curve-right" x="16" y="15" xlink:href="#curve-shape" 
               transform="rotate(90, 16, 15) scale(-1, 1) translate(-32, 0)"
          />        
          <path id="i-shape" d="
               M 9 5
               L 18 5 18 8 15 8 15 19 18 19 18 22 9 22 9 19 12 19 12 8 9 8 
               Z" />
     </g>
     <g id="bg-highlight" style="fill:#7c7c7c">
          <use id="curve-bottom" x="22" y="16" xlink:href="#curve-shape" 
               transform="rotate(180, 22, 16)"
          />       
          <use id="curve-top" x="5" y="11" xlink:href="#curve-shape"/>         
          <rect x="19" y="2" width="3" height="9"/>
          <rect x="5" y="16" width="3" height="9"/>
     </g>
     <g id="bg-dim" style="fill:#ddd">
          <use id="curve-left" x="11" y="12" xlink:href="#curve-shape" 
               transform="rotate(90, 11, 12) scale(1, -1) translate(0, -24)"
          />  
          <rect x="2" y="5" width="2" height="3"/>
          <rect x="23" y="19" width="2" height="3"/>
     </g>
    </g>
</svg>
